<?xml version="1.0" encoding="UTF-8" standalone="no"?>
<!DOCTYPE svg PUBLIC "-//W3C//DTD SVG 1.1//EN" "http://www.w3.org/Graphics/SVG/1.1/DTD/svg11.dtd">
<svg width="100%" height="100%" viewBox="0 0 6250 6250" version="1.1" xmlns="http://www.w3.org/2000/svg" xmlns:xlink="http://www.w3.org/1999/xlink" xml:space="preserve" xmlns:serif="http://www.serif.com/" style="fill-rule:evenodd;clip-rule:evenodd;stroke-linecap:round;stroke-linejoin:round;stroke-miterlimit:1.5;">
    <g transform="matrix(6.25,0,0,6.25,0,0)">
        <g transform="matrix(0.509944,0,0,0.509944,-9.32048,-11.0151)">
            <path d="M39,1908.99C34.099,1864.97 177.28,1897.86 297.801,1646.3C298.06,1645.76 298.052,1645.76 349.809,1527.92C382.091,1454.42 384.013,1455.38 411.885,1380.25C408.166,1377.97 404.183,1376.16 400.424,1373.95C365.822,1353.62 289.429,1283.26 256.964,1213.53C249.323,1197.11 190.967,1096.52 207.005,951.567C223.279,804.491 340.899,661.462 456.304,577.724C474.249,564.704 568.049,496.643 698.074,442.267C704.117,439.74 730.25,425.377 749.204,442.496C776.589,467.229 738.718,491.649 735.131,493.962C697.413,518.282 485.055,617.228 460.189,768.31C455.811,794.91 442.065,868.503 515.649,930.059C558.637,966.019 599.269,973.61 602.327,966.358C778.085,549.507 919.427,187.73 946.03,119.636C947.511,115.846 960.528,82.526 968.886,74.188C987.7,55.418 1002.34,87.609 1003.61,90.4C1016.82,119.47 1016.43,119.44 1164.86,455.556C1174.41,450.352 1184.47,446.119 1194.02,440.916C1269.84,399.607 1267.62,394.974 1348.31,364.462C1386.59,349.99 1505.28,318.112 1590.04,369.186C1753.95,467.955 1666.28,696.934 1497.51,663.282C1428.58,649.539 1373.87,567.861 1400.5,506.151C1416.03,470.162 1454.36,475.24 1457.88,508.662C1458.29,512.564 1452.29,574.958 1501.4,597.209C1588.88,636.846 1671.46,492.882 1549.11,422.978C1508.3,399.657 1439.53,398.826 1370.13,425.429C1322.49,443.694 1192.12,509.298 1198.35,524.962C1216.54,570.65 1651.49,1534.7 1719.13,1666.35C1836.95,1895.66 1934.7,1869.4 1941.92,1906.41C1943.19,1912.9 1938.2,1928.08 1919.71,1930.24C1874.33,1935.54 1755.14,1935.26 1671.49,1892.6C1551.36,1831.32 1489.8,1678.08 1455.4,1602.92C1439.77,1568.75 1441.14,1568.16 1262.28,1174.79C1211.35,1062.78 1194.18,1029.67 1188.18,1017.12C1171.64,982.563 1170.79,983.639 1154.19,948.961C1146.92,952.002 1138.52,955.924 1131.25,958.965C1123.46,962.221 1021.59,1011.91 891.656,1039.69C818.296,1055.38 776.921,1055.24 773.236,1058.32C772.424,1059 669.494,1300.94 662.425,1309.13C658.804,1313.33 631.347,1303.31 628.767,1302.37C620.275,1299.27 612.651,1294.07 604.16,1290.97C609.357,1277.96 612.68,1264.24 617.877,1251.23C649.107,1173.02 652.2,1174.57 684.215,1096.71C689.01,1085.05 692.445,1072.86 697.24,1061.2L647.389,1056.9C586.454,1197.71 630.093,1328.19 503.082,1242.34C491.292,1234.37 491.067,1232.39 495.451,1218.83C500.566,1203.02 554.11,1075.62 556.414,1069.36C560.196,1059.09 561.563,1048.04 565.345,1037.77C557.864,1033.99 551.17,1028.78 543.69,1025C520.13,1013.1 452.274,996.301 404.879,896.139C377.019,837.262 392.561,748.093 394.774,735.4C378.59,757.38 263.941,883.496 311.541,1065.38C314.984,1078.53 333.83,1150.55 392.726,1214.73C436.595,1262.54 458.461,1277.86 525.908,1318.86C521.485,1329.21 518.452,1340.12 514.029,1350.46C512.949,1352.99 444.46,1499.51 443.346,1519.64C441.913,1545.53 477.65,1552.62 488.086,1533.13C495.937,1518.47 495.851,1518.51 575.911,1344.67C583.708,1346.89 591.057,1349.93 598.854,1352.14C624.505,1359.43 742.674,1403.95 971.179,1404.27C1117.54,1404.48 1154.2,1369.71 1177.05,1394.73C1202.52,1422.6 1198.82,1426.66 1225.7,1442.1C1229.91,1444.53 1260.54,1454.73 1256.6,1479.08C1255.18,1487.88 1252.74,1491.45 1244.09,1494.79C1123.49,1541.34 916.825,1531.67 888.136,1530.44C752.131,1524.6 596.408,1474.27 594.193,1473.69C582.103,1494.57 495.631,1716.52 452.769,1787.24C394.155,1883.96 318.729,1916.85 265.117,1924.56C219.512,1931.12 72.735,1936.23 53.687,1929.03C51.828,1928.33 40.683,1924.11 39,1908.99ZM814.233,976.479C813.383,978.049 812.748,979.656 811.682,981.088C790.752,1009.22 1126.66,910.309 1125.39,876.511C1125.11,868.829 1033.42,674.055 1026.26,668.892C1023.99,667.256 976.951,716.667 943.468,760.331C875.137,849.441 833.805,940.327 814.233,976.479ZM940.868,466.543L940.811,466.131C937.672,468.378 894.3,564.194 892.292,568.427C857.474,641.814 706.141,917.584 695.249,940.989C691.922,948.139 686.81,957.418 679.91,970.644C678.206,973.91 676.231,979.413 673.697,985.722C681.445,986.064 701.848,992.311 709.596,992.653C711.906,992.755 732.967,993.683 738.207,988.56C742.167,984.689 791.658,872.606 840.835,795.446C897.255,706.921 932.919,667.925 998.828,597.358C993.992,584.518 988.886,571.776 983.488,559.162C980.454,552.074 941.931,468.439 940.868,466.543ZM936.882,472.791C936.902,472.755 936.925,472.72 936.944,472.684C936.962,472.648 936.976,472.609 936.995,472.573L936.731,473.04L936.882,472.791Z" style="fill:rgb(7,66,94);stroke:rgb(7,66,94);stroke-width:1.02px;"/>
        </g>
    </g>
</svg>
